{
  "asset": {
    "version": "2.0",
    "generator": "Sketchup glTF Exporter v1.2.6 by Centaur"
  },
  "scene": 0,
  "scenes": [
    {
      "nodes": [
        0
      ]
    }
  ],
  "samplers": [
    {
    }
  ],
  "nodes": [
    {
      "name": "root",
      "mesh": 0
    }
  ],
  "materials": [
    {
      "pbrMetallicRoughness": {
        "baseColorTexture": {
          "index": 0
        },
        "metallicFactor": 0.1,
        "roughnessFactor": 0.9
      },
      "name": "20070222092936"
    },
    {
      "pbrMetallicRoughness": {
        "baseColorTexture": {
          "index": 1
        },
        "metallicFactor": 0.1,
        "roughnessFactor": 0.9
      },
      "name": "20070222092931"
    },
    {
      "pbrMetallicRoughness": {
        "baseColorFactor": [
          0.4098,
          0.4098,
          0.4098,
          1.0
        ],
        "metallicFactor": 0.1,
        "roughnessFactor": 0.9
      },
      "name": "Color_003"
    },
    {
      "pbrMetallicRoughness": {
        "baseColorTexture": {
          "index": 2
        },
        "metallicFactor": 0.1,
        "roughnessFactor": 0.9
      },
      "name": "Blu_Ray___HDDVD__4adc23d5f2500[1]"
    },
    {
      "pbrMetallicRoughness": {
        "baseColorTexture": {
          "index": 3
        },
        "metallicFactor": 0.1,
        "roughnessFactor": 0.9
      },
      "name": "20070222092907"
    },
    {
      "pbrMetallicRoughness": {
        "baseColorTexture": {
          "index": 4
        },
        "metallicFactor": 0.1,
        "roughnessFactor": 0.9
      },
      "name": "20070222092913"
    }
  ],
  "images": [
    {
      "bufferView": 0,
      "mimeType": "image/jpeg"
    },
    {
      "bufferView": 1,
      "mimeType": "image/jpeg"
    },
    {
      "bufferView": 2,
      "mimeType": "image/jpeg"
    },
    {
      "bufferView": 3,
      "mimeType": "image/jpeg"
    },
    {
      "bufferView": 4,
      "mimeType": "image/jpeg"
    }
  ],
  "textures": [
    {
      "source": 0,
      "sampler": 0
    },
    {
      "source": 1,
      "sampler": 0
    },
    {
      "source": 2,
      "sampler": 0
    },
    {
      "source": 3,
      "sampler": 0
    },
    {
      "source": 4,
      "sampler": 0
    }
  ],
  "meshes": [
    {
      "primitives": [
        {
          "attributes": {
            "POSITION": 2,
            "NORMAL": 3,
            "TEXCOORD_0": 4
          },
          "indices": 5,
          "mode": 4,
          "material": 0
        },
        {
          "attributes": {
            "POSITION": 2,
            "NORMAL": 3,
            "TEXCOORD_0": 4
          },
          "indices": 6,
          "mode": 4,
          "material": 1
        },
        {
          "attributes": {
            "POSITION": 0,
            "NORMAL": 1
          },
          "indices": 7,
          "mode": 4,
          "material": 2
        },
        {
          "attributes": {
            "POSITION": 2,
            "NORMAL": 3,
            "TEXCOORD_0": 4
          },
          "indices": 8,
          "mode": 4,
          "material": 3
        },
        {
          "attributes": {
            "POSITION": 2,
            "NORMAL": 3,
            "TEXCOORD_0": 4
          },
          "indices": 9,
          "mode": 4,
          "material": 4
        },
        {
          "attributes": {
            "POSITION": 2,
            "NORMAL": 3,
            "TEXCOORD_0": 4
          },
          "indices": 10,
          "mode": 4,
          "material": 5
        }
      ]
    }
  ],
  "accessors": [
    {
      "bufferView": 5,
      "componentType": 5126,
      "count": 9,
      "type": "VEC3",
      "min": [
        -1.2720359592209154,
        -3.8896624467251544e-17,
        -0.6352300842060404
      ],
      "max": [
        1.166964040779086,
        0.6670000000000003,
        2.2907699157939607
      ]
    },
    {
      "bufferView": 6,
      "componentType": 5126,
      "count": 9,
      "type": "VEC3",
      "min": [
        -1.0,
        -7.49879891330929e-33,
        -2.4492935982947064e-16
      ],
      "max": [
        1.0,
        7.49879891330929e-33,
        2.4492935982947064e-16
      ]
    },
    {
      "bufferView": 7,
      "componentType": 5126,
      "count": 327,
      "type": "VEC3",
      "min": [
        -1.2720359592209154,
        -3.8896624467251544e-17,
        -0.6352300921960271
      ],
      "max": [
        1.166964040779086,
        0.6670000000000003,
        2.300769915793961
      ]
    },
    {
      "bufferView": 8,
      "componentType": 5126,
      "count": 327,
      "type": "VEC3",
      "min": [
        -1.0,
        -1.0,
        -1.0
      ],
      "max": [
        1.0,
        1.0,
        1.0
      ]
    },
    {
      "bufferView": 9,
      "componentType": 5126,
      "count": 327,
      "type": "VEC2",
      "min": [
        -0.9850852987650669,
        -0.2968907933886935
      ],
      "max": [
        1.4625890962932986,
        4.377921534816128
      ]
    },
    {
      "bufferView": 11,
      "componentType": 5123,
      "count": 12,
      "type": "SCALAR"
    },
    {
      "bufferView": 11,
      "componentType": 5123,
      "count": 6,
      "type": "SCALAR",
      "byteOffset": 24
    },
    {
      "bufferView": 10,
      "componentType": 5121,
      "count": 15,
      "type": "SCALAR"
    },
    {
      "bufferView": 11,
      "componentType": 5123,
      "count": 117,
      "type": "SCALAR",
      "byteOffset": 36
    },
    {
      "bufferView": 11,
      "componentType": 5123,
      "count": 252,
      "type": "SCALAR",
      "byteOffset": 270
    },
    {
      "bufferView": 11,
      "componentType": 5123,
      "count": 270,
      "type": "SCALAR",
      "byteOffset": 774
    }
  ],
  "bufferViews": [
    {
      "buffer": 0,
      "byteLength": 42541
    },
    {
      "buffer": 0,
      "byteOffset": 42541,
      "byteLength": 66730
    },
    {
      "buffer": 0,
      "byteOffset": 109271,
      "byteLength": 23060
    },
    {
      "buffer": 0,
      "byteOffset": 132331,
      "byteLength": 32902
    },
    {
      "buffer": 0,
      "byteOffset": 165233,
      "byteLength": 28290
    },
    {
      "buffer": 0,
      "byteOffset": 193524,
      "byteLength": 108,
      "target": 34962,
      "byteStride": 12
    },
    {
      "buffer": 0,
      "byteOffset": 193632,
      "byteLength": 108,
      "target": 34962,
      "byteStride": 12
    },
    {
      "buffer": 0,
      "byteOffset": 193740,
      "byteLength": 3924,
      "target": 34962,
      "byteStride": 12
    },
    {
      "buffer": 0,
      "byteOffset": 197664,
      "byteLength": 3924,
      "target": 34962,
      "byteStride": 12
    },
    {
      "buffer": 0,
      "byteOffset": 201592,
      "byteLength": 2616,
      "target": 34962,
      "byteStride": 8
    },
    {
      "buffer": 0,
      "byteOffset": 204208,
      "byteLength": 15,
      "target": 34963
    },
    {
      "buffer": 0,
      "byteOffset": 204224,
      "byteLength": 1314,
      "target": 34963
    }
  ],
  "buffers": [
    {
      "uri": "data:application/octet-stream;base64,",
      "byteLength": 205538
    }
  ]
}